<?xml version="1.0" encoding="utf-8"?>
<!-- Generator: Adobe Illustrator 22.0.0, SVG Export Plug-In . SVG Version: 6.00 Build 0)  -->
<svg version="1.1" id="Слой_1" xmlns="http://www.w3.org/2000/svg" xmlns:xlink="http://www.w3.org/1999/xlink" x="0px" y="0px"
	 viewBox="0 0 500 46" style="enable-background:new 0 0 500 46;" xml:space="preserve" preserveAspectRatio="none">
<style type="text/css">
	.st0{fill:#5CA360;}
	.st1{fill:#7A5648;}
	.st2{fill:#4B87B0;}
	.st3{fill:#975E4E;}
	.st4{fill:#6EB1D2;}
	.st5{fill:#4795CC;}
</style>
<rect x="0.1" class="st0" width="499.9" height="46"/>
<path class="st1" d="M500,6c-3.6,0.2-12.4,1.6-27.1,2.3c-15.5,0.8-65.1,3.5-107.4-4.3s-84.1,3.1-133.5,9.2S152.7,11,120,4.8
	C87.3-1.4,62.7,4.4,43.1,8.7c-19.6,4.3-43-2.3-43-2.3v27.2L500,36.3V6z"/>
<path class="st2" d="M500,24.7c-1.4-0.2-5.3-1.1-16.3-3.1c-12.9-2.3-60.8-1.6-82.7,0c-21.9,1.6-38.4-4.3-59.9-6.2
	c-21.5-1.9-29-1.6-44.6-1.2c-15.7,0.4-41.5,4.3-62.4,8.6c-20.9,4.3-54.7,0.4-66.1,0c-11.4-0.4-21.9-1.6-40.8-6.6
	c-18.9-5.1-67.6-4.7-86.2,0c-18.6,4.7-40.9,0-40.9,0V46H500V24.7z"/>
<path class="st3" d="M39.7,16.4l0.5-7.2c-3.5,0.6-6.9,0.8-9.9,0.9l-0.5,7.7C32.7,17.6,36,17.1,39.7,16.4z"/>
<path class="st3" d="M23.9,18.3l0.9-8.2c-2.3-0.1-4.2-0.2-5.9-0.4L18,18.4C19.5,18.4,21.5,18.4,23.9,18.3z"/>
<path class="st3" d="M117,14.2l1.1-10c-3.8-0.6-8.1-1.1-11.5-1.4l-1.1,10.3C108.5,13.3,112.8,13.6,117,14.2z"/>
<path class="st3" d="M193.9,24.4l1-8.9c-3.5-0.1-7.8-0.4-12-0.7l-1,8.9C186.1,23.9,190.5,24.2,193.9,24.4z"/>
<path class="st3" d="M176.1,23.3l1-9c-2.2-0.2-4.2-0.4-5.8-0.5l-1,9.2C171.7,23,173.7,23.1,176.1,23.3z"/>
<path class="st3" d="M252.4,19.4l0.6-9.1c-4,0.6-8.7,1.2-12.1,1.7l-0.6,9.6C243.3,21,248.2,20.1,252.4,19.4z"/>
<path class="st3" d="M337,15l0.9-13.9c-3.8,0-8.5,0.1-12,0.3l-0.8,12.8C328.7,14.5,333.3,14.8,337,15z"/>
<path class="st3" d="M455.4,20.2l1.9-10.9c-1.9,0.1-4.1,0.1-6.4,0.1L449,20.2C451.3,20.2,453.5,20.2,455.4,20.2z"/>
<path class="st3" d="M441.2,20.3l1.9-10.9c-4.5,0-8.9,0-12.2,0l-2,11.1C432.1,20.4,436.6,20.3,441.2,20.3z"/>
<path class="st0" d="M61.8,4.8c0,0-2.4,2.3-2.4,4.4c0,0,1.6-3,6.2-4.4c0,0-1.6,2,0,4.4c0,0,0.7-5.1,3.3-5.5c0,0,4,1,4,4.4
	c0,0,2.6-5.1,0-6.8C70.4-0.4,61.8,4.8,61.8,4.8z"/>
<path class="st0" d="M210.3,15.7c0,0-2.4,2.3-2.4,4.4c0,0,1.6-3,6.2-4.4c0,0-1.6,2,0,4.4c0,0,0.7-5.1,3.3-5.5c0,0,4,1,4,4.4
	c0,0,2.6-5.1,0-6.8C218.9,10.5,210.3,15.7,210.3,15.7z"/>
<path class="st0" d="M366.2,4.8c0,0,2.4,2.3,2.4,4.4c0,0-1.6-3-6.2-4.4c0,0,1.6,2,0,4.4c0,0-0.7-5.1-3.3-5.5c0,0-4,1-4,4.4
	c0,0-2.6-5.1,0-6.8S366.2,4.8,366.2,4.8z"/>
<path class="st0" d="M490.5,8.9c0,0,2.4,2.3,2.4,4.4c0,0-1.6-3-6.2-4.4c0,0,1.6,2,0,4.4c0,0-0.7-5.1-3.3-5.5c0,0-4,1-4,4.4
	c0,0-2.6-5.1,0-6.8S490.5,8.9,490.5,8.9z"/>
<path class="st4" d="M6.2,34.6c-0.7-0.1,26.3-0.4,45.1-3.2S94.7,30.9,111,33s29.4,2.7,39.9,1.2c10.5-1.5-9.3,3.5-33.7,3.3
	c0,0-37.8-4.6-50-3.4C58,34.9,18.7,37,6.2,34.6z"/>
<path class="st4" d="M299.6,36.1c-0.7-0.1,26.3-0.4,45.1-3.2c18.8-2.8,43.3-0.5,59.6,1.6c16.3,2.1,29.4,2.7,39.9,1.2
	c10.5-1.5-9.3,3.5-33.7,3.3c0,0-37.8-4.6-50-3.4C351.3,36.4,312.1,38.4,299.6,36.1z"/>
<path class="st5" d="M500,31.8C500,31.8,500,31.8,500,31.8c-0.7,0-3.9-0.8-16.8-3.2c-12.8-2.3-60.7-1.6-82.6,0
	c-21.9,1.6-38.3-4.3-59.9-6.2c-21.5-1.9-28.9-1.6-44.6-1.2c-15.6,0.4-41.5,4.3-62.3,8.6c-20.9,4.3-54.7,0.4-66,0
	c-11.4-0.4-21.9-1.6-40.8-6.6s-67.5-4.7-86.1,0s-40.8,0-40.8,0V46H500V31.8z"/>
</svg>
