<?xml version="1.0" encoding="utf-8"?>
<!-- Generator: Adobe Illustrator 22.0.0, SVG Export Plug-In . SVG Version: 6.00 Build 0)  -->
<svg version="1.1" id="Слой_1" xmlns="http://www.w3.org/2000/svg" xmlns:xlink="http://www.w3.org/1999/xlink" x="0px" y="0px"
	 viewBox="0 0 251 43" style="enable-background:new 0 0 251 43;" xml:space="preserve" preserveAspectRatio="none">
<style type="text/css">
	.st0{fill:#ADD7DC;}
	.st1{fill:#B8C0BA;}
	.st2{fill:#8B8B8A;}
	.st3{fill:#DDE1DD;}
	.st4{fill:#F4F6F7;}
	.st5{fill:#A9B1AB;}
	.st6{fill:#909290;}
	.st7{fill:#9FA2A0;}
	.st8{fill:#66B161;}
	.st9{fill:#74B774;}
	.st10{fill:#DFE46E;}
	.st11{fill:#5CA360;}
	.st12{fill:#518D5D;}
</style>
<rect x="0" class="st0" width="251" height="43"/>
<polygon class="st1" points="0,28.2 32.6,28.2 14.9,10.1 0,25.3 "/>
<g>
	<polygon class="st2" points="56.4,13.5 31.3,31.5 81.5,31.5 	"/>
	<polygon class="st3" points="56.4,13.5 48.7,19 53.9,16.9 54.1,19 56.4,16.7 60,18.8 59.1,16.2 63.1,18.3 	"/>
</g>
<g>
	<ellipse class="st4" cx="55.1" cy="11.8" rx="6.1" ry="1.5"/>
	<path class="st4" d="M71.4,13.8H38.7c-0.4,0-0.7-0.3-0.7-0.7v-0.2c0-0.4,0.3-0.7,0.7-0.7h32.7c0.4,0,0.7,0.3,0.7,0.7v0.2
		C72.1,13.5,71.8,13.8,71.4,13.8z"/>
	<ellipse class="st4" cx="46.3" cy="12.4" rx="4.8" ry="1.2"/>
	<ellipse class="st4" cx="64.1" cy="12.4" rx="4.8" ry="1.2"/>
	<path class="st4" d="M42.4,11.7c0,0-0.8,0.6-2.7,0.5s4.7,0,4.7,0L42.4,11.7z"/>
	<path class="st4" d="M50.2,10.9c0,0-1.3,0.4-2.2,0.4c-1-0.1,1,0.7,1,0.7l2.5-0.1L50.2,10.9z"/>
	<path class="st4" d="M59.7,10.8c0,0,1.5,0.6,2.8,0.4s-1.1,0.9-1.1,0.9l-3.3-1L59.7,10.8z"/>
	<path class="st4" d="M68.3,11.8c0,0,1.2,0.4,2.2,0.3c1.1,0-1,0.7-1,0.7l-2.4-0.7L68.3,11.8z"/>
</g>
<g>
	<polygon class="st1" points="75.6,6.8 47.5,25.8 103.8,25.8 86.9,14.4 	"/>
	<polygon class="st5" points="102.7,3.9 121.6,15.1 135.1,25.8 103.8,25.8 85.8,13.6 	"/>
	<polygon class="st3" points="102.7,3.9 96.5,7.5 99.6,6.8 97.6,9.8 102.1,7.3 104.8,10.3 105.4,7.1 112,9.4 	"/>
	<polygon class="st6" points="47.5,25.8 53.2,21.9 59,23.8 65.7,22.3 73,23.8 80.4,22.4 90,24.4 98,21.9 106.5,23.8 112,21.3 
		121.3,23.2 128.2,20.3 135.1,25.8 	"/>
	<polygon class="st3" points="75.6,6.8 68.4,11.6 72,10.1 71.6,11.9 75.1,9.6 75.6,12 77.6,9.6 83.9,12.4 	"/>
</g>
<g>
	<polygon class="st1" points="127.9,6.5 110.2,24.6 145.6,24.6 	"/>
	<polygon class="st3" points="127.9,6.5 122.5,12 126.2,9.9 126.3,12 127.9,9.7 130.5,11.8 129.8,9.3 132.7,11.3 	"/>
	<polygon class="st6" points="110.2,24.6 113.3,21.5 116.3,22.7 120.8,21.7 126.6,23 130.8,21 137.7,22.6 141.2,20 145.6,24.6 	"/>
</g>
<g>
	<polygon class="st7" points="137.8,6.4 115.7,25.2 159.9,25.2 	"/>
	<polygon class="st3" points="137.8,6.4 131,12.1 135.6,9.9 135.7,12.1 137.8,9.7 140.9,11.9 140.2,9.2 143.7,11.4 	"/>
	<polygon class="st6" points="115.7,25.2 119.5,22 123.2,23.3 128.9,22.2 136.1,23.6 141.4,21.5 150,23.1 154.3,20.4 159.9,25.2 	
		"/>
</g>
<g>
	<polygon class="st5" points="35.7,8.5 12,26.6 59.4,26.6 	"/>
	<polygon class="st3" points="35.7,8.5 28.4,14.1 33.3,12 33.5,14.1 35.7,11.7 39.1,13.9 38.2,11.3 42,13.4 	"/>
	<polygon class="st6" points="12,26.6 16,23.5 20.1,24.8 26.1,23.8 33.9,25.1 39.6,23 48.8,24.6 53.4,22 59.4,26.6 	"/>
</g>
<path class="st8" d="M168.8,43C148,34.5,88.3,28.3,18,28.3c-6.1,0-12.1,0-18,0.1V43H168.8z"/>
<path class="st9" d="M176.4,28.3c-17.7-2.1-38.6-3.4-61-3.4c-24,0-46.3,1.4-64.7,3.8c26.8,0.8,51.2,2.6,71.1,5.1
	C137.3,31.5,155.8,29.6,176.4,28.3z"/>
<g>
	<ellipse class="st4" cx="33.9" cy="4.6" rx="10.7" ry="1.5"/>
	<path class="st4" d="M63.3,6.4H4.8c-0.3,0-0.6-0.3-0.6-0.6V5.6C4.2,5.2,4.4,5,4.8,5h58.5c0.3,0,0.6,0.3,0.6,0.6v0.2
		C63.9,6.1,63.6,6.4,63.3,6.4z"/>
	<ellipse class="st4" cx="18.4" cy="5.2" rx="8.5" ry="1.2"/>
	<ellipse class="st4" cx="49.7" cy="5.2" rx="8.5" ry="1.2"/>
	<path class="st4" d="M11.5,4.5c0,0-1.4,0.6-4.8,0.5S15,5,15,5L11.5,4.5z"/>
	<path class="st4" d="M25.3,3.7c0,0-2.3,0.4-4,0.4c-1.7-0.1,1.8,0.7,1.8,0.7l4.4-0.1L25.3,3.7z"/>
	<path class="st4" d="M42,3.6c0,0,2.7,0.6,5,0.4c2.3-0.1-1.9,0.9-1.9,0.9l-5.9-1L42,3.6z"/>
	<path class="st4" d="M57.1,4.6c0,0,2.1,0.4,4,0.3c1.9,0-1.7,0.7-1.7,0.7l-4.3-0.7L57.1,4.6z"/>
</g>
<g>
	<ellipse class="st4" cx="110.4" cy="14.5" rx="4.2" ry="1"/>
	<path class="st4" d="M121.8,15.8H99c-0.3,0-0.5-0.2-0.5-0.5v-0.1c0-0.3,0.2-0.5,0.5-0.5h22.8c0.3,0,0.5,0.2,0.5,0.5v0.1
		C122.3,15.6,122.1,15.8,121.8,15.8z"/>
	<ellipse class="st4" cx="104.3" cy="14.9" rx="3.4" ry="0.8"/>
	<ellipse class="st4" cx="116.7" cy="14.9" rx="3.4" ry="0.8"/>
	<path class="st4" d="M101.6,14.4c0,0-0.6,0.4-1.9,0.4c-1.3,0,3.3,0,3.3,0L101.6,14.4z"/>
	<path class="st4" d="M107,13.9c0,0-0.9,0.3-1.6,0.2c-0.7,0,0.7,0.5,0.7,0.5l1.7,0L107,13.9z"/>
	<path class="st4" d="M113.6,13.8c0,0,1.1,0.4,2,0.3c0.9-0.1-0.8,0.6-0.8,0.6l-2.3-0.6L113.6,13.8z"/>
	<path class="st4" d="M119.6,14.5c0,0,0.8,0.2,1.6,0.2c0.7,0-0.7,0.5-0.7,0.5l-1.7-0.5L119.6,14.5z"/>
</g>
<g>
	<ellipse class="st4" cx="128.4" cy="3.8" rx="3.9" ry="1.1"/>
	<path class="st4" d="M138.7,5.3h-20.6c-0.3,0-0.5-0.2-0.5-0.5V4.6c0-0.3,0.2-0.5,0.5-0.5h20.6c0.3,0,0.5,0.2,0.5,0.5v0.1
		C139.3,5,139,5.3,138.7,5.3z"/>
	<ellipse class="st4" cx="122.8" cy="4.2" rx="3.1" ry="0.9"/>
	<ellipse class="st4" cx="134.1" cy="4.2" rx="3.1" ry="0.9"/>
	<path class="st4" d="M120.4,3.7c0,0-0.5,0.4-1.7,0.4c-1.2,0,3,0,3,0L120.4,3.7z"/>
	<path class="st4" d="M125.4,3.1c0,0-0.8,0.3-1.4,0.3c-0.6,0,0.7,0.5,0.7,0.5l1.6,0L125.4,3.1z"/>
	<path class="st4" d="M131.4,3.1c0,0,1,0.4,1.8,0.3c0.8-0.1-0.7,0.7-0.7,0.7l-2.1-0.7L131.4,3.1z"/>
	<path class="st4" d="M136.8,3.8c0,0,0.8,0.3,1.4,0.3c0.7,0-0.6,0.6-0.6,0.6l-1.6-0.6L136.8,3.8z"/>
</g>
<ellipse class="st10" cx="163.2" cy="6.1" rx="4.8" ry="4.9"/>
<path class="st11" d="M0,43c31-9.8,119.6-16.9,224.2-16.9c9.1,0,18,0.1,26.8,0.2V43H0z"/>
<g>
	<ellipse class="st4" cx="165.9" cy="8.5" rx="6.8" ry="2.2"/>
	<ellipse class="st4" cx="156" cy="9.4" rx="5.4" ry="1.8"/>
	<path class="st4" d="M151.6,8.4c0,0-0.9,0.8-3.1,0.8c-2.2,0,5.3,0,5.3,0L151.6,8.4z"/>
	<path class="st4" d="M160.5,7.2c0,0-1.4,0.6-2.5,0.5c-1.1-0.1,1.2,1,1.2,1l2.8-0.1L160.5,7.2z"/>
	<path class="st4" d="M173.6,9h-26.3c-0.4,0-0.6,0.4-0.6,1v0.4c0,0.5,0.3,1,0.6,1h26.3V9z"/>
	<path class="st4" d="M173.6,7.7c-1.3-0.1-2.5-0.7-2.5-0.7l-1.8,0.5l3.8,1.4c0,0,0.2-0.1,0.5-0.3V7.7z"/>
	<path class="st4" d="M173.6,7.8c-1.8,0.3-3,0.9-3,1.6c0,0.7,1.2,1.3,3,1.6V7.8z"/>
</g>
<g>
	<path class="st12" d="M136,24.1c-63.4,0-117.1,1.7-135.8,4.2v0.2c5.9-0.1,11.9-0.1,18-0.1c11.1,0,22,0.2,32.4,0.5c0,0,0,0,0,0
		c18.4-2.4,40.7-3.8,64.7-3.8c22.4,0,43.3,1.2,61,3.4c0,0,0,0,0,0c17.5-1.1,36.4-1.6,56.2-1.6c6.1,0,12.1,0.1,18,0.2v-0.3
		C224.5,25,182.9,24.1,136,24.1z"/>
	<path class="st12" d="M52.7,28.9C52.8,28.9,52.8,28.9,52.7,28.9C52.8,28.9,52.8,28.9,52.7,28.9z"/>
</g>
</svg>
