<?xml version="1.0" encoding="utf-8"?>
<!-- Generator: Adobe Illustrator 22.0.0, SVG Export Plug-In . SVG Version: 6.00 Build 0)  -->
<svg version="1.1" id="Слой_1" xmlns="http://www.w3.org/2000/svg" xmlns:xlink="http://www.w3.org/1999/xlink" x="0px" y="0px"
	 viewBox="0 0 25 25" style="enable-background:new 0 0 25 25;" xml:space="preserve" preserveAspectRatio="none">
<style type="text/css">
	.st0{fill:#F8E278;}
	.st1{fill:#52A261;}
	.st2{fill:#D35244;}
	.st3{fill:#D24A43;}
	.st4{fill:#D66047;}
</style>
<g>
	<circle class="st0" cx="12.5" cy="12.5" r="12.5"/>
	<path class="st1" d="M12.5,15.7C10.2,8.3,0.8,14,0.8,14s5.9,10.1,11.7,3.4c5.8,6.7,11.7-3.4,11.7-3.4S14.8,8.3,12.5,15.7z"/>
	<path class="st2" d="M12.5,3.1c0,0-8.9,8.7,0,12.7C21.4,11.8,12.5,3.1,12.5,3.1z"/>
	<path class="st3" d="M16.3,12c-0.4,1.4-1.5,2.8-3.8,3.8V3.1C12.5,3.1,17.4,7.9,16.3,12z"/>
	<path class="st4" d="M21.1,8.1c0,0-6.4-0.1-8.6,3.3c-2.2-3.4-8.6-3.3-8.6-3.3s-0.1,12,8.6,8.8C21.3,20.2,21.1,8.1,21.1,8.1z"/>
	<path class="st2" d="M12.5,16.9v-5.5c2.2-3.4,8.6-3.3,8.6-3.3S21.3,20.2,12.5,16.9z"/>
</g>
</svg>
