<?xml version="1.0" encoding="utf-8"?>
<!-- Generator: Adobe Illustrator 22.0.0, SVG Export Plug-In . SVG Version: 6.00 Build 0)  -->
<svg version="1.1" id="Слой_1" xmlns="http://www.w3.org/2000/svg" xmlns:xlink="http://www.w3.org/1999/xlink" x="0px" y="0px"
	 viewBox="0 0 500 40" style="enable-background:new 0 0 500 40;" xml:space="preserve" preserveAspectRatio="none">
<style type="text/css">
	.st0{fill:#6C5D3C;}
	.st1{fill:#756542;}
	.st2{fill:#806A43;}
	.st3{fill:#8A7148;}
	.st4{fill:#594B31;}
	.st5{fill:#A5A3A0;}
</style>
<g>
	<rect x="0.2" y="0.4" class="st0" width="499.8" height="10"/>
	<rect x="0.2" y="10.3" class="st1" width="499.8" height="10"/>
	<rect x="0.2" y="20" class="st2" width="499.8" height="10"/>
	<rect x="0.2" y="29.6" class="st3" width="499.8" height="10"/>
	
		<rect x="-14.8" y="14.9" transform="matrix(6.656371e-11 -1 1 6.656371e-11 -14.7832 25.1281)" class="st4" width="39.9" height="10.1"/>
	
		<rect x="474.9" y="14.9" transform="matrix(6.648377e-11 -1 1 6.648377e-11 474.9474 514.9473)" class="st4" width="40" height="10.1"/>
	
		<rect x="230.2" y="14.9" transform="matrix(6.654061e-11 -1 1 6.654061e-11 230.167 270.0783)" class="st4" width="39.9" height="10.1"/>
	<ellipse class="st5" cx="5.2" cy="5.3" rx="2.4" ry="2.4"/>
	<ellipse class="st5" cx="5.2" cy="34.6" rx="2.4" ry="2.4"/>
	<ellipse class="st5" cx="250.1" cy="5.3" rx="2.4" ry="2.4"/>
	<ellipse class="st5" cx="249.9" cy="35.4" rx="2.4" ry="2.4"/>
	<ellipse class="st5" cx="494.9" cy="5.2" rx="2.4" ry="2.4"/>
	<ellipse class="st5" cx="494.9" cy="35.4" rx="2.4" ry="2.4"/>
</g>
</svg>
