<?xml version="1.0" encoding="utf-8"?>
<!-- Generator: Adobe Illustrator 22.0.0, SVG Export Plug-In . SVG Version: 6.00 Build 0)  -->
<svg version="1.1" id="Слой_1" xmlns="http://www.w3.org/2000/svg" xmlns:xlink="http://www.w3.org/1999/xlink" x="0px" y="0px"
	 viewBox="0 0 54 27" style="enable-background:new 0 0 54 27;" xml:space="preserve" preserveAspectRatio="none">
<style type="text/css">
	.st0{fill:#CFAA81;}
	.st1{fill:#EAC18F;}
	.st2{fill:#A5A3A0;}
</style>
<g>
	<g>
		<path class="st0" d="M48.2,27H5.8C2.6,27,0,24.4,0,21.2V5.8C0,2.6,2.6,0,5.8,0h42.3C51.4,0,54,2.6,54,5.8v15.3
			C54,24.4,51.4,27,48.2,27z"/>
		<path class="st1" d="M54,10.7c0-0.8-0.6-1.5-1.3-1.5H1.3C0.6,9.2,0,9.9,0,10.7v3.9l2.7,0.6L0,15.5v0.9c0,0.8,0.6,1.5,1.3,1.5h51.4
			c0.7,0,1.3-0.7,1.3-1.5v-3.9l-2.3-0.3L54,12V10.7z"/>
		<path class="st1" d="M54,1.5C54,0.7,53.4,0,52.7,0H19.9l-2.2,1.2L16,0.5l-0.8,0.5L13.9,0H1.3C0.6,0,0,0.7,0,1.5v0.6l2.9,0.6L0,3
			v4.1c0,0.8,0.6,1.5,1.3,1.5h51.3c0.7,0,1.3-0.7,1.3-1.5v-1h-1.4l-1.9-0.8L54,4.9V1.5z"/>
		<path class="st1" d="M54,20.1c0-0.9-0.7-1.7-1.5-1.7H1.5c-0.8,0-1.5,0.8-1.5,1.7v1.3l2,0.3l-2,0.3v3.3C0,26.2,0.7,27,1.5,27H40
			l2.1-1.2l2.9,0.7l1.3-0.5l1.4,0.9h4.7c0.8,0,1.5-0.8,1.5-1.7v-0.8l-2-0.3l1.6-0.5l-0.8-0.2L54,23V20.1z"/>
	</g>
	<ellipse class="st2" cx="52.2" cy="1.4" rx="0.8" ry="0.8"/>
	<ellipse class="st2" cx="1.7" cy="1.4" rx="0.8" ry="0.8"/>
	<ellipse class="st2" cx="52.2" cy="7.2" rx="0.8" ry="0.8"/>
	<ellipse class="st2" cx="1.7" cy="7.2" rx="0.8" ry="0.8"/>
	<ellipse class="st2" cx="52.3" cy="10.6" rx="0.8" ry="0.8"/>
	<ellipse class="st2" cx="1.7" cy="10.6" rx="0.8" ry="0.8"/>
	<ellipse class="st2" cx="52.3" cy="16.4" rx="0.8" ry="0.8"/>
	<ellipse class="st2" cx="1.7" cy="16.4" rx="0.8" ry="0.8"/>
	<ellipse class="st2" cx="52.3" cy="19.8" rx="0.8" ry="0.8"/>
	<ellipse class="st2" cx="1.7" cy="19.8" rx="0.8" ry="0.8"/>
	<ellipse class="st2" cx="52.3" cy="25.6" rx="0.8" ry="0.8"/>
	<ellipse class="st2" cx="1.7" cy="25.6" rx="0.8" ry="0.8"/>
</g>
</svg>
